<svg width="24" height="24" viewBox="0 0 24 24" fill="none" xmlns="http://www.w3.org/2000/svg">
<g clip-path="url(#clip0_1_25)">
<path d="M13.0205 3.61328C15.3227 2.95923 17.7993 2.76478 19.9219 2.88281L19.9209 2.88379C19.9999 2.88794 20.1038 2.89488 20.207 2.90527L20.4893 2.94043L20.4902 2.94141C20.7112 2.97975 20.8979 3.0916 21.0166 3.25977C21.1358 3.429 21.1784 3.64447 21.1299 3.87207V3.87305C21.1134 3.94851 21.0675 4.0299 21.0225 4.09961C20.9745 4.17381 20.9141 4.25485 20.8545 4.33398C20.729 4.50047 20.6106 4.65129 20.5576 4.75684V4.75781C20.2456 5.37234 20.0944 6.23725 19.9717 6.95508V6.95605C19.7556 8.17713 19.6096 9.44623 19.3584 10.6602C19.1052 11.8835 18.7397 13.0836 18.0713 14.2109C16.8482 16.2821 14.9651 17.2921 12.877 17.6934C10.8287 18.0869 8.57679 17.8955 6.53809 17.5498C6.35191 17.8493 6.17716 18.1592 6.00195 18.4736C5.80999 18.8182 5.61459 19.1666 5.40137 19.502C5.29203 19.6772 5.15533 19.8993 4.96973 20.0303C4.8724 20.0989 4.75756 20.1458 4.62402 20.1494C4.49132 20.153 4.3535 20.1134 4.20996 20.0303C4.06281 19.9451 3.96145 19.8382 3.9043 19.7119C3.84762 19.5866 3.84127 19.4565 3.85938 19.334C3.89427 19.0985 4.02684 18.856 4.11914 18.6758L4.12012 18.6748C4.3255 18.2816 4.55488 17.9016 4.78516 17.5273C5.0068 17.1671 5.22677 16.8121 5.43262 16.4512C4.77766 13.2522 4.96027 9.75502 7.14551 7.11719C8.57869 5.38342 10.7195 4.26706 13.0205 3.61328ZM19.0811 4.39844C16.8556 4.41391 14.3165 4.67963 12.1152 5.51465C9.84729 6.37502 7.95168 7.83145 7.11133 10.2227C6.64358 11.5565 6.5242 13.0887 6.69336 14.5098C8.55947 11.8226 10.7478 9.01692 13.6504 7.35742L13.6523 7.35645C13.8204 7.26244 14.1963 7.05857 14.5723 6.88184C14.7601 6.79353 14.9511 6.71044 15.1172 6.65137C15.2002 6.62184 15.2803 6.5981 15.3516 6.58203C15.4189 6.56685 15.4893 6.55687 15.5527 6.5625L15.5537 6.56152C16.1794 6.61184 16.4819 7.35629 16.0684 7.8291L16.0674 7.83105C16.0353 7.86678 15.9888 7.89812 15.9463 7.9248C15.9006 7.95345 15.8461 7.98459 15.7861 8.01562C15.6659 8.07786 15.5172 8.14642 15.3672 8.21387C15.0604 8.35179 14.7544 8.48092 14.6221 8.55078C13.2849 9.27153 11.8916 10.4847 10.6357 11.8525C9.3804 13.2198 8.26904 14.7343 7.49609 16.0469L7.49219 16.0537C7.48083 16.0707 7.45839 16.1064 7.43457 16.1455C9.14412 16.3875 10.9923 16.5241 12.6562 16.1953C14.374 15.8559 15.8876 15.0249 16.8545 13.3096V13.3086C17.5623 12.0555 17.8596 10.6831 18.082 9.26953C18.3033 7.86361 18.4516 6.40604 18.8691 5.02637C18.911 4.88061 18.9612 4.73779 19.0107 4.59961C19.0351 4.53159 19.0576 4.46436 19.0811 4.39844Z" fill="#202020" stroke="#202020" stroke-width="0.3" stroke-linejoin="round"/>
</g>
<defs>
<clipPath id="clip0_1_25">
<rect width="19" height="19" fill="white" transform="translate(3 2)"/>
</clipPath>
</defs>
</svg>
