<svg width="34" height="32" viewBox="0 0 34 32" fill="none" xmlns="http://www.w3.org/2000/svg">
<path d="M12.0201 10.91C8.71009 10.91 6.02009 13.6 6.02009 16.91V19.8C6.02009 20.41 5.76009 21.34 5.45009 21.86L4.30009 23.77C3.59009 24.95 4.08009 26.26 5.38009 26.7C9.69009 28.14 14.3401 28.14 18.6501 26.7C19.8601 26.3 20.3901 24.87 19.7301 23.77L18.5801 21.86C18.2801 21.34 18.0201 20.41 18.0201 19.8V16.91C18.0201 13.61 15.3201 10.91 12.0201 10.91Z" stroke="#202020" stroke-width="1.5" stroke-miterlimit="10" stroke-linecap="round"/>
<path d="M13.8699 11.2C13.5599 11.11 13.2399 11.04 12.9099 11C11.9499 10.88 11.0299 10.95 10.1699 11.2C10.4599 10.46 11.1799 9.94 12.0199 9.94C12.8599 9.94 13.5799 10.46 13.8699 11.2Z" stroke="#202020" stroke-width="1.5" stroke-miterlimit="10" stroke-linecap="round" stroke-linejoin="round"/>
<path d="M15.02 27.06C15.02 28.71 13.67 30.06 12.02 30.06C11.2 30.06 10.44 29.72 9.90002 29.18C9.36002 28.64 9.02002 27.88 9.02002 27.06" stroke="#202020" stroke-width="1.5" stroke-miterlimit="10"/>
<rect x="14" width="20" height="20" rx="10" fill="#FF0000"/>
<path d="M25.58 12.4C25.74 12.4 25.8733 12.4533 25.98 12.56C26.0867 12.6667 26.14 12.8 26.14 12.96C26.14 13.1133 26.0867 13.2433 25.98 13.35C25.8733 13.45 25.74 13.5 25.58 13.5H22.18C22.0067 13.5 21.87 13.4467 21.77 13.34C21.67 13.2333 21.62 13.0967 21.62 12.93C21.62 12.7633 21.68 12.6167 21.8 12.49L23.98 10.16C24.2267 9.89333 24.42 9.62 24.56 9.34C24.7067 9.06 24.78 8.81667 24.78 8.61C24.78 8.27667 24.6833 8.01 24.49 7.81C24.2967 7.60333 24.04 7.5 23.72 7.5C23.5933 7.5 23.4633 7.53 23.33 7.59C23.1967 7.65 23.0667 7.73333 22.94 7.84C22.82 7.94667 22.7067 8.07 22.6 8.21C22.52 8.31667 22.44 8.38333 22.36 8.41C22.28 8.43667 22.2067 8.45 22.14 8.45C21.9933 8.45 21.8567 8.39667 21.73 8.29C21.61 8.17667 21.55 8.04667 21.55 7.9C21.55 7.78667 21.5867 7.67667 21.66 7.57C21.74 7.46333 21.8367 7.35333 21.95 7.24C22.1167 7.07333 22.3033 6.92667 22.51 6.8C22.7167 6.67333 22.93 6.57667 23.15 6.51C23.37 6.43667 23.5833 6.4 23.79 6.4C24.2367 6.4 24.6233 6.49 24.95 6.67C25.2833 6.84333 25.54 7.09333 25.72 7.42C25.9 7.74 25.99 8.12 25.99 8.56C25.99 8.92667 25.88 9.33667 25.66 9.79C25.4467 10.2367 25.1567 10.6567 24.79 11.05L23.44 12.49L23.33 12.4H25.58Z" fill="white"/>
</svg>
